<svg xmlns="http://www.w3.org/2000/svg" xmlns:xlink="http://www.w3.org/1999/xlink" width="34px" height="40px" viewBox="0 0 34 40"><title>Android</title><g id="Page-1" stroke="none" stroke-width="1" fill="none" fill-rule="evenodd"><g id="VOD" transform="translate(-948.000000, -2578.000000)" fill="#FFFFFF" fill-rule="nonzero"><path d="M976.181699,2591.50263 L976.181699,2608.3205 C976.181699,2609.21916 975.447801,2609.94844 974.536295,2609.94844 L971.572,2609.948 L971.572731,2615.63003 C971.572731,2616.8835 970.586072,2617.91107 969.33531,2617.99453 L969.170729,2618 C967.846533,2618 966.771362,2616.93884 966.771362,2615.63003 L966.771,2609.948 L963.248,2609.948 L963.248788,2615.63003 C963.248788,2616.8835 962.262129,2617.91107 961.010618,2617.99453 L960.845935,2618 C959.521739,2618 958.449204,2616.93884 958.449204,2615.63003 L958.449,2609.948 L955.478584,2609.94844 C954.568778,2609.94844 953.832244,2609.21925 953.832244,2608.3205 L953.832244,2591.50263 C955.753612,2591.49568 958.659961,2591.49141 961.833686,2591.48981 L967.680154,2591.48981 C970.916392,2591.49141 973.989442,2591.49568 976.181699,2591.50263 Z M972.096081,2578.01948 L972.165495,2578.0513 C972.348374,2578.15359 972.410099,2578.38327 972.305694,2578.56122 L970.419701,2581.78476 C973.520821,2583.46212 975.748561,2586.53603 976.255474,2590.15687 L976.292311,2590.44743 L953.721718,2590.44743 C954.144185,2586.73924 956.367034,2583.57238 959.499249,2581.83821 L957.808489,2578.58373 C957.724722,2578.422 957.772836,2578.23056 957.910454,2578.12131 L957.974789,2578.07985 C958.160219,2577.98521 958.389179,2578.05836 958.484913,2578.24244 L960.173383,2581.49385 C961.640059,2580.8054 963.278564,2580.42043 965.007439,2580.42043 C966.698108,2580.42043 968.301954,2580.78813 969.743102,2581.44747 L971.6484,2578.18802 C971.739829,2578.0315 971.929875,2577.96327 972.096081,2578.01948 Z M959.915214,2584.64886 C959.394548,2584.64886 958.974036,2585.06254 958.974036,2585.5733 C958.974036,2586.08582 959.394548,2586.49942 959.915214,2586.49942 C960.430609,2586.49942 960.851121,2586.08582 960.851121,2585.5733 C960.851121,2585.06245 960.430609,2584.64886 959.915214,2584.64886 Z M970.119644,2584.64886 C969.600763,2584.64886 969.180251,2585.06254 969.180251,2585.5733 C969.180251,2586.08582 969.600763,2586.49942 970.119644,2586.49942 C970.64031,2586.49942 971.057336,2586.08582 971.057336,2585.5733 C971.057336,2585.06245 970.640225,2584.64886 970.119644,2584.64886 Z M982,2603.76019 C982,2605.06817 980.927465,2606.13016 979.600633,2606.13016 L979.600633,2606.13016 C978.273801,2606.13016 977.198631,2605.06901 977.198631,2603.76019 L977.198631,2593.38838 C977.198631,2592.0778 978.272951,2591.01925 979.600633,2591.01925 L979.600633,2591.01925 C980.926615,2591.01925 982,2592.07788 982,2593.38838 L982,2603.76019 L982,2603.76019 Z M952.799669,2603.76019 C952.799669,2605.06817 951.723648,2606.13016 950.401152,2606.13016 L950.401152,2606.13016 C949.07347,2606.13016 948,2605.06901 948,2603.76019 L948,2593.38838 C948,2592.0778 949.072535,2591.01925 950.401152,2591.01925 L950.401152,2591.01925 C951.723648,2591.01925 952.799669,2592.07788 952.799669,2593.38838 L952.799669,2603.76019 L952.799669,2603.76019 Z" id="Android"></path></g></g></svg>