<svg xmlns="http://www.w3.org/2000/svg" xmlns:xlink="http://www.w3.org/1999/xlink" width="31px" height="40px" viewBox="0 0 31 40"><title>Apple</title><g id="Page-1" stroke="none" stroke-width="1" fill="none" fill-rule="evenodd"><g id="VOD" transform="translate(-800.000000, -2578.000000)" fill="#FFFFFF"><path d="M800.000007,2599.97219 C800.18373,2596.70405 801.111983,2593.2941 804.254768,2590.91557 C806.731383,2589.041 809.456769,2588.5436 812.440599,2589.6382 C816.495751,2591.12563 815.212935,2591.10959 819.213149,2589.62039 C823.412079,2588.05683 827.549237,2589.57847 829.57881,2591.99316 C829.999049,2592.49269 830.168476,2592.75407 829.474261,2593.26016 C824.462277,2596.91579 824.951832,2604.36684 830.386539,2607.39522 C830.984282,2607.72786 831.143502,2607.94882 830.871656,2608.64343 C829.741137,2611.53328 828.180617,2614.13694 825.99706,2616.34778 C824.528752,2617.83405 822.789042,2618.30354 820.782634,2617.57082 C820.409167,2617.4345 820.025671,2617.32274 819.664008,2617.16098 C817.403592,2616.15155 815.147791,2616.20225 812.901132,2617.19005 C812.14337,2617.52331 811.355699,2617.76014 810.554982,2617.93199 C809.306335,2618.19975 808.265012,2617.63968 807.345101,2616.90218 C805.500486,2615.42246 804.215096,2613.47982 803.053248,2611.45741 C801.236591,2608.29555 799.996641,2603.75988 800.000007,2599.97219 L800.000007,2599.97219 Z M823.217535,2579.06097 C823.159847,2582.43803 820.534662,2585.90842 817.448855,2586.68883 C815.644534,2587.14493 815.275327,2586.80662 815.610631,2585.00411 C816.265973,2581.47974 819.044433,2578.74792 822.675085,2578.02805 C823.101537,2577.94331 823.255166,2578.03984 823.219222,2578.46554 C823.203246,2578.66274 823.217003,2578.86225 823.217535,2579.06097 L823.217535,2579.06097 Z" id="Apple"></path></g></g></svg>