<svg xmlns="http://www.w3.org/2000/svg" xmlns:xlink="http://www.w3.org/1999/xlink" width="49px" height="60px" viewBox="0 0 49 60"><title>Boitier IPTV</title><g id="Page-1" stroke="none" stroke-width="1" fill="none" fill-rule="evenodd"><g id="VOD" transform="translate(-491.000000, -2568.000000)" fill="#FFFFFF" fill-rule="nonzero"><path d="M522.112237,2588.66652 C522.600343,2588.66652 522.996061,2589.06004 522.996061,2589.54543 C522.996061,2589.99349 522.658881,2590.36326 522.223099,2590.41749 L522.112237,2590.42434 L495.662346,2590.42434 C494.123281,2590.42434 492.860786,2591.62515 492.772571,2593.13417 L492.767647,2593.30306 L492.767647,2623.36358 C492.767647,2624.89409 493.975066,2626.14956 495.492511,2626.23729 L495.662346,2626.24218 L525.891113,2626.24218 C527.430178,2626.24218 528.692673,2625.04148 528.780888,2623.53248 L528.785812,2623.36358 L528.785812,2608.33332 C528.785812,2607.84793 529.181529,2607.45441 529.669635,2607.45441 C530.120304,2607.45441 530.491949,2607.78972 530.546458,2608.22308 L530.553341,2608.33332 L530.553341,2623.36358 C530.553341,2625.84902 528.57644,2627.88408 526.10409,2627.99522 L525.890995,2628 L495.662346,2628 C493.163007,2628 491.11657,2626.03409 491.004807,2623.57549 L491,2623.36358 L491,2593.30306 C491,2590.81751 492.9769,2588.78245 495.449251,2588.67131 L495.662346,2588.66652 L522.112237,2588.66652 Z M511.721301,2622.48479 C512.209525,2622.48479 512.605124,2622.87831 512.605124,2623.3637 C512.605124,2623.81176 512.267945,2624.18153 511.832163,2624.23576 L511.721301,2624.24261 L509.83204,2624.24261 C509.343934,2624.24261 508.948216,2623.84909 508.948216,2623.3637 C508.948216,2622.91565 509.285396,2622.54588 509.721178,2622.49164 L509.83204,2622.48479 L511.721301,2622.48479 Z M517.38932,2622.48479 C517.877308,2622.48479 518.273144,2622.87831 518.273144,2623.3637 C518.273144,2623.81176 517.935964,2624.18153 517.500182,2624.23576 L517.38932,2624.24261 L515.500059,2624.24261 C515.011953,2624.24261 514.616235,2623.84909 514.616235,2623.3637 C514.616235,2622.91565 514.953415,2622.54588 515.389197,2622.49164 L515.500059,2622.48479 L517.38932,2622.48479 Z M506.053518,2622.48479 C506.541624,2622.48479 506.937341,2622.87831 506.937341,2623.3637 C506.937341,2623.81176 506.600162,2624.18153 506.164379,2624.23576 L506.053518,2624.24261 L504.164256,2624.24261 C503.67615,2624.24261 503.280433,2623.84909 503.280433,2623.3637 C503.280433,2622.91565 503.617612,2622.54588 504.053395,2622.49164 L504.164256,2622.48479 L506.053518,2622.48479 Z M509.83204,2602.75753 C510.320146,2602.75753 510.715863,2603.15105 510.715863,2603.63644 C510.715863,2604.08449 510.378684,2604.45426 509.942902,2604.5085 L509.83204,2604.51534 L506.937341,2604.51534 L506.937223,2612.09095 C506.937223,2612.57634 506.541506,2612.96985 506.0534,2612.96985 C505.60284,2612.96985 505.231003,2612.63455 505.176463,2612.20119 L505.169576,2612.09095 L505.169576,2604.51534 L502.274878,2604.51534 C501.786771,2604.51534 501.391054,2604.12183 501.391054,2603.63644 C501.391054,2603.18838 501.728233,2602.81861 502.164016,2602.76438 L502.274878,2602.75753 L509.83204,2602.75753 Z M520.502736,2602.80253 C520.930234,2602.94424 521.176391,2603.37931 521.090312,2603.80755 L521.061783,2603.91429 L518.526506,2611.4777 C518.227185,2612.3702 517.390498,2612.96985 516.444572,2612.96985 C515.554288,2612.96985 514.76077,2612.43868 514.421048,2611.6321 L514.362755,2611.4777 L511.827478,2603.91429 C511.673221,2603.45374 511.923402,2602.95604 512.386525,2602.80253 C512.814024,2602.66082 513.273253,2602.86201 513.462886,2603.25603 L513.504503,2603.35847 L516.039663,2610.92188 C516.097877,2611.09544 516.260501,2611.21204 516.444572,2611.21204 C516.602347,2611.21204 516.744451,2611.12628 516.818492,2610.99249 L516.849598,2610.92176 L519.384758,2603.35847 C519.53925,2602.89792 520.039612,2602.64901 520.502736,2602.80253 Z M537.226915,2568 C538.6993,2568 539.907456,2569.1471 539.994929,2570.58992 L540,2570.75766 L540,2598.00006 C540,2602.11054 536.63711,2605.45472 532.503645,2605.45472 C528.451227,2605.45472 525.139464,2602.24039 525.011149,2598.24095 L525.007289,2598.00006 L525.007289,2570.75766 C525.007289,2569.29335 526.160803,2568.09202 527.611693,2568.00504 L527.780374,2568 L537.226915,2568 Z M537.226798,2569.75782 L527.780256,2569.75782 C527.265517,2569.75782 526.839789,2570.14451 526.781596,2570.64121 L526.774819,2570.75766 L526.774819,2598.00006 C526.774819,2601.14128 529.34486,2603.69691 532.503645,2603.69691 C535.58897,2603.69691 538.112503,2601.25876 538.228208,2598.21824 L538.232353,2598.00006 L538.232235,2570.75766 C538.232235,2570.20641 537.781249,2569.75782 537.226798,2569.75782 Z M529.67918,2594.30302 C530.167169,2594.30302 530.563004,2594.69654 530.563004,2595.18193 C530.563004,2595.66732 530.167287,2596.06084 529.67918,2596.06084 C529.191074,2596.06084 528.790643,2595.66732 528.790643,2595.18193 C528.790643,2594.73387 529.123706,2594.3641 529.558855,2594.30987 L529.669635,2594.30302 L529.67918,2594.30302 Z M535.337536,2594.30302 C535.825643,2594.30302 536.221478,2594.69654 536.22136,2595.18193 C536.22136,2595.66732 535.825643,2596.06084 535.337536,2596.06084 C534.84943,2596.06084 534.448999,2595.66732 534.448999,2595.18193 C534.448999,2594.69654 534.840003,2594.30302 535.328109,2594.30302 L535.328109,2594.30302 Z M532.503645,2585.84839 C534.553644,2585.84839 536.22136,2587.50695 536.22136,2589.54543 C536.22136,2591.58403 534.553644,2593.24259 532.503645,2593.24259 C530.453646,2593.24259 528.785812,2591.58403 528.785812,2589.54543 C528.785812,2587.50695 530.453646,2585.84839 532.503645,2585.84839 Z M532.503645,2587.60621 C531.428326,2587.60621 530.553459,2588.47609 530.553459,2589.54543 C530.553459,2590.61477 531.428326,2591.48477 532.503645,2591.48477 C533.578963,2591.48477 534.453713,2590.61489 534.453713,2589.54543 C534.453713,2588.47621 533.578963,2587.60621 532.503645,2587.60621 Z M529.67918,2583.03026 C530.167169,2583.03026 530.563004,2583.42378 530.563004,2583.90917 C530.563004,2584.39456 530.167287,2584.78808 529.67918,2584.78808 C529.191074,2584.78808 528.790643,2584.39456 528.790643,2583.90917 C528.790643,2583.42378 529.181529,2583.03026 529.669635,2583.03026 L529.669635,2583.03026 Z M535.337536,2583.03026 C535.825643,2583.03026 536.221478,2583.42378 536.22136,2583.90917 C536.22136,2584.39456 535.825643,2584.78808 535.337536,2584.78808 C534.84943,2584.78808 534.448999,2584.39456 534.448999,2583.90917 C534.448999,2583.42378 534.840003,2583.03026 535.328109,2583.03026 L535.328109,2583.03026 Z M529.67918,2579.27276 C530.167169,2579.27276 530.563004,2579.66627 530.563004,2580.15166 C530.563004,2580.63706 530.167287,2581.03057 529.67918,2581.03057 C529.191074,2581.03057 528.790643,2580.63706 528.790643,2580.15166 C528.790643,2579.66627 529.181529,2579.27276 529.669635,2579.27276 L529.669635,2579.27276 Z M532.51319,2579.27276 C533.001178,2579.27276 533.397014,2579.66627 533.397014,2580.15166 C533.397014,2580.63706 533.001296,2581.03057 532.51319,2581.03057 C532.025084,2581.03057 531.624653,2580.63706 531.624653,2580.15166 C531.624653,2579.66627 532.015656,2579.27276 532.503763,2579.27276 L532.503763,2579.27276 Z M535.337536,2579.27276 C535.825643,2579.27276 536.221478,2579.66627 536.22136,2580.15166 C536.22136,2580.63706 535.825643,2581.03057 535.337536,2581.03057 C534.84943,2581.03057 534.448999,2580.63706 534.448999,2580.15166 C534.448999,2579.66627 534.840003,2579.27276 535.328109,2579.27276 L535.328109,2579.27276 Z M529.67918,2576.45451 C530.167169,2576.45451 530.563004,2576.84803 530.563004,2577.33342 C530.563004,2577.81881 530.167287,2578.21232 529.67918,2578.21232 C529.191074,2578.21232 528.790643,2577.81881 528.790643,2577.33342 C528.790643,2576.84803 529.181529,2576.45451 529.669635,2576.45451 L529.669635,2576.45451 Z M532.51319,2576.45451 C533.001178,2576.45451 533.397014,2576.84803 533.397014,2577.33342 C533.397014,2577.81881 533.001296,2578.21232 532.51319,2578.21232 C532.025084,2578.21232 531.624653,2577.81881 531.624653,2577.33342 C531.624653,2576.84803 532.015656,2576.45451 532.503763,2576.45451 L532.503763,2576.45451 Z M535.337536,2576.45451 C535.825643,2576.45451 536.221478,2576.84803 536.22136,2577.33342 C536.22136,2577.81881 535.825643,2578.21232 535.337536,2578.21232 C534.84943,2578.21232 534.448999,2577.81881 534.448999,2577.33342 C534.448999,2576.84803 534.840003,2576.45451 535.328109,2576.45451 L535.328109,2576.45451 Z M529.67918,2573.63638 C530.167169,2573.63638 530.563004,2574.02989 530.563004,2574.51529 C530.563004,2575.00068 530.167287,2575.39419 529.67918,2575.39419 C529.191074,2575.39419 528.790643,2575.00068 528.790643,2574.51529 C528.790643,2574.02989 529.181529,2573.63638 529.669635,2573.63638 L529.669635,2573.63638 Z M532.51319,2573.63638 C533.001178,2573.63638 533.397014,2574.02989 533.397014,2574.51529 C533.397014,2575.00068 533.001296,2575.39419 532.51319,2575.39419 C532.025084,2575.39419 531.624653,2575.00068 531.624653,2574.51529 C531.624653,2574.02989 532.015656,2573.63638 532.503763,2573.63638 L532.503763,2573.63638 Z M535.337536,2573.63638 C535.825643,2573.63638 536.221478,2574.02989 536.22136,2574.51529 C536.22136,2575.00068 535.825643,2575.39419 535.337536,2575.39419 C534.84943,2575.39419 534.448999,2575.00068 534.448999,2574.51529 C534.448999,2574.02989 534.840003,2573.63638 535.328109,2573.63638 L535.328109,2573.63638 Z" id="Boitier-IPTV"></path></g></g></svg>