<svg xmlns="http://www.w3.org/2000/svg" xmlns:xlink="http://www.w3.org/1999/xlink" width="40px" height="40px" viewBox="0 0 40 40"><title>Chromecast</title><g id="Page-1" stroke="none" stroke-width="1" fill="none" fill-rule="evenodd"><g id="VOD" transform="translate(-495.000000, -2798.000000)" fill="#FFFFFF" fill-rule="nonzero"><path d="M533.46047,2809.99444 C534.484811,2812.29575 534.997988,2814.98094 535,2817.79476 C535,2829.04803 525.907714,2838 514.768759,2838 L514.768759,2838 L514,2838 L522.705894,2822.78326 C523.21907,2821.88686 523.601437,2820.99246 523.730235,2819.96944 L523.730235,2819.96944 L523.730235,2819.84081 C523.85702,2819.20167 523.985817,2818.4339 523.985817,2817.79476 C523.985817,2814.47043 522.192717,2811.65661 519.63287,2809.99444 L519.63287,2809.99444 Z M498,2806.99385 L506.37721,2821.37195 L506.626719,2821.6215 C507.125737,2822.37214 507.626719,2822.99702 508.251473,2823.6219 C509.876228,2825.24698 512.251473,2826.37294 514.750491,2826.37294 C516.249509,2826.37294 517.750491,2825.99762 519,2825.24698 L519,2825.24698 L512.249509,2836.9998 C502.499018,2835.87581 495,2827.62466 495,2817.49691 C495,2813.61992 496.125737,2809.99444 498,2806.99385 L498,2806.99385 Z M522,2817.99776 C522,2821.92699 518.80783,2824.99742 515,2824.99742 C511.070582,2824.99742 508,2821.80541 508,2817.99776 C508,2814.19012 511.1941,2810.99811 515.00193,2810.99811 C518.80783,2810.87459 522,2814.06854 522,2817.99776 Z M515.043412,2798 C522.619523,2798 529.312382,2802.4211 532.599267,2808.73413 L532.599267,2808.73413 L515.519361,2808.73462 C514.85631,2808.73807 514.194399,2808.76564 513.530968,2808.98625 L513.530968,2808.98625 L513.403939,2808.98625 C509.235788,2809.61755 505.952873,2813.40735 505.952873,2817.82845 L505.952873,2817.82845 L505.952285,2818.13568 C505.949344,2818.002 505.931701,2817.80926 505.825844,2817.70339 L505.825844,2817.70339 L499.005954,2806.08385 C502.667973,2801.1585 508.477582,2798 515.043412,2798 Z" id="Chromecast"></path></g></g></svg>