<svg xmlns="http://www.w3.org/2000/svg" xmlns:xlink="http://www.w3.org/1999/xlink" width="50px" height="50px" viewBox="0 0 50 50"><title>Decoder IPTV</title><g id="Page-1" stroke="none" stroke-width="1" fill="none" fill-rule="evenodd"><g id="VOD" transform="translate(-790.000000, -2793.000000)" fill="#FFFFFF" fill-rule="nonzero"><path d="M839.267578,2815.84082 C839.638363,2815.84082 839.944813,2816.11629 839.993314,2816.47384 L840,2816.57324 L840,2840.31445 C840,2841.73826 838.886199,2842.90692 837.484043,2842.99471 L837.314453,2843 L792.685547,2843 C791.261644,2843 790.093077,2841.88611 790.005293,2840.48403 L790,2840.31445 L790,2838.55371 C790,2838.14912 790.32793,2837.82129 790.732422,2837.82129 C791.103206,2837.82129 791.409657,2838.09676 791.458157,2838.45431 L791.464844,2838.55371 L791.464844,2840.31445 C791.464844,2840.94553 791.946096,2841.46622 792.560907,2841.52884 L792.685547,2841.53516 L837.314453,2841.53516 C837.945526,2841.53516 838.466221,2841.0539 838.528843,2840.43909 L838.535156,2840.31445 L838.535156,2816.57324 C838.535156,2816.16865 838.863086,2815.84082 839.267578,2815.84082 Z M803.951367,2836.40547 C804.355859,2836.40547 804.683789,2836.7333 804.683789,2837.13789 L804.683789,2837.13789 L804.683789,2839.11084 C804.683789,2839.51543 804.355859,2839.84326 803.951367,2839.84326 C803.546875,2839.84326 803.218945,2839.51543 803.218945,2839.11084 L803.218945,2839.11084 L803.218945,2837.13789 C803.218945,2836.7333 803.546875,2836.40547 803.951367,2836.40547 Z M800.794629,2836.40547 C801.199121,2836.40547 801.527051,2836.7333 801.527051,2837.13789 L801.527051,2837.13789 L801.527051,2839.11084 C801.527051,2839.51543 801.199121,2839.84326 800.794629,2839.84326 C800.390137,2839.84326 800.062207,2839.51543 800.062207,2839.11084 L800.062207,2839.11084 L800.062207,2837.13789 C800.062207,2836.7333 800.390137,2836.40547 800.794629,2836.40547 Z M797.637793,2836.40547 C798.042383,2836.40547 798.370215,2836.7333 798.370215,2837.13789 L798.370215,2837.13789 L798.370215,2839.11084 C798.370215,2839.51543 798.042285,2839.84326 797.637793,2839.84326 C797.233301,2839.84326 796.905371,2839.51543 796.905371,2839.11084 L796.905371,2839.11084 L796.905371,2837.13789 C796.905371,2836.7333 797.233301,2836.40547 797.637793,2836.40547 Z M813.421582,2836.40547 C813.826074,2836.40547 814.154004,2836.7333 814.154004,2837.13789 L814.154004,2837.13789 L814.154004,2839.11084 C814.154004,2839.51543 813.826074,2839.84326 813.421582,2839.84326 C813.01709,2839.84326 812.68916,2839.51543 812.68916,2839.11084 L812.68916,2839.11084 L812.68916,2837.13789 C812.68916,2836.7333 813.01709,2836.40547 813.421582,2836.40547 Z M810.264844,2836.40547 C810.669336,2836.40547 810.997266,2836.7333 810.997266,2837.13789 L810.997266,2837.13789 L810.997266,2839.11084 C810.997266,2839.51543 810.669336,2839.84326 810.264844,2839.84326 C809.860352,2839.84326 809.532422,2839.51543 809.532422,2839.11084 L809.532422,2839.11084 L809.532422,2837.13789 C809.532422,2836.7333 809.860352,2836.40547 810.264844,2836.40547 Z M807.108105,2836.40547 C807.512598,2836.40547 807.840527,2836.7333 807.840527,2837.13789 L807.840527,2837.13789 L807.840527,2839.11084 C807.840527,2839.51543 807.512598,2839.84326 807.108105,2839.84326 C806.703613,2839.84326 806.375684,2839.51543 806.375684,2839.11084 L806.375684,2839.11084 L806.375684,2837.13789 C806.375684,2836.7333 806.703613,2836.40547 807.108105,2836.40547 Z M822.891895,2836.40547 C823.296387,2836.40547 823.624316,2836.7333 823.624316,2837.13789 L823.624316,2837.13789 L823.624316,2839.11084 C823.624316,2839.51543 823.296387,2839.84326 822.891895,2839.84326 C822.487402,2839.84326 822.159473,2839.51543 822.159473,2839.11084 L822.159473,2839.11084 L822.159473,2837.13789 C822.159473,2836.7333 822.487402,2836.40547 822.891895,2836.40547 Z M819.735156,2836.40547 C820.139648,2836.40547 820.467578,2836.7333 820.467578,2837.13789 L820.467578,2837.13789 L820.467578,2839.11084 C820.467578,2839.51543 820.139648,2839.84326 819.735156,2839.84326 C819.330664,2839.84326 819.002734,2839.51543 819.002734,2839.11084 L819.002734,2839.11084 L819.002734,2837.13789 C819.002734,2836.7333 819.330664,2836.40547 819.735156,2836.40547 Z M816.578418,2836.40547 C816.98291,2836.40547 817.31084,2836.7333 817.31084,2837.13789 L817.31084,2837.13789 L817.31084,2839.11084 C817.31084,2839.51543 816.98291,2839.84326 816.578418,2839.84326 C816.173926,2839.84326 815.845996,2839.51543 815.845996,2839.11084 L815.845996,2839.11084 L815.845996,2837.13789 C815.845996,2836.7333 816.173926,2836.40547 816.578418,2836.40547 Z M832.362207,2836.40547 C832.766699,2836.40547 833.094629,2836.7333 833.094629,2837.13789 L833.094629,2837.13789 L833.094629,2839.11084 C833.094629,2839.51543 832.766699,2839.84326 832.362207,2839.84326 C831.957715,2839.84326 831.629785,2839.51543 831.629785,2839.11084 L831.629785,2839.11084 L831.629785,2837.13789 C831.629785,2836.7333 831.957715,2836.40547 832.362207,2836.40547 Z M829.205371,2836.40547 C829.609863,2836.40547 829.937793,2836.7333 829.937793,2837.13789 L829.937793,2837.13789 L829.937793,2839.11084 C829.937793,2839.51543 829.609863,2839.84326 829.205371,2839.84326 C828.800879,2839.84326 828.472949,2839.51543 828.472949,2839.11084 L828.472949,2839.11084 L828.472949,2837.13789 C828.472949,2836.7333 828.800879,2836.40547 829.205371,2836.40547 Z M826.048633,2836.40547 C826.453125,2836.40547 826.781055,2836.7333 826.781055,2837.13789 L826.781055,2837.13789 L826.781055,2839.11084 C826.781055,2839.51543 826.453125,2839.84326 826.048633,2839.84326 C825.644141,2839.84326 825.316211,2839.51543 825.316211,2839.11084 L825.316211,2839.11084 L825.316211,2837.13789 C825.316211,2836.7333 825.644141,2836.40547 826.048633,2836.40547 Z M831.474316,2793 C831.845101,2793 832.151552,2793.27547 832.200052,2793.63302 L832.206738,2793.73242 L832.206738,2804.64053 L833.151367,2804.64053 C833.522152,2804.64053 833.828602,2804.916 833.877103,2805.27355 L833.883789,2805.37295 L833.883789,2807.99414 L837.314453,2807.99414 C838.738356,2807.99414 839.906923,2809.10803 839.994707,2810.51011 L840,2810.67969 L840,2813.15527 C840,2813.55986 839.67207,2813.8877 839.267578,2813.8877 C838.896794,2813.8877 838.590343,2813.61223 838.541843,2813.25468 L838.535156,2813.15527 L838.535156,2810.67969 C838.535156,2810.04861 838.053904,2809.52792 837.439093,2809.4653 L837.314453,2809.45898 L792.685547,2809.45898 C792.054474,2809.45898 791.533779,2809.94024 791.471157,2810.55505 L791.464844,2810.67969 L791.464844,2835.13574 C791.464844,2835.54033 791.136914,2835.86816 790.732422,2835.86816 C790.361637,2835.86816 790.055187,2835.59269 790.006686,2835.23515 L790,2835.13574 L790,2810.67969 C790,2809.25588 791.113801,2808.08722 792.515957,2807.99943 L792.685547,2807.99414 L796.116211,2807.99414 L796.116211,2805.37295 C796.116211,2805.00208 796.391763,2804.6957 796.74925,2804.64721 L796.848633,2804.64053 L798.483789,2804.64053 L798.483789,2793.73242 C798.483789,2793.32783 798.811719,2793 799.216211,2793 C799.586995,2793 799.893446,2793.27547 799.941946,2793.63302 L799.948633,2793.73242 L799.948633,2804.64053 L801.583789,2804.64053 C801.954574,2804.64053 802.261024,2804.916 802.309525,2805.27355 L802.316211,2805.37295 L802.316211,2807.99414 L804.008105,2807.99414 L804.008105,2805.37295 C804.008105,2805.00208 804.283657,2804.6957 804.641145,2804.64721 L804.740527,2804.64053 L806.375684,2804.64053 L806.375684,2793.73242 C806.375684,2793.32783 806.703613,2793 807.108105,2793 C807.47889,2793 807.785341,2793.27547 807.833841,2793.63302 L807.840527,2793.73242 L807.840527,2804.64053 L809.475684,2804.64053 C809.846468,2804.64053 810.152919,2804.916 810.201419,2805.27355 L810.208105,2805.37295 L810.208105,2807.99414 L816.043262,2807.99414 L816.043262,2805.37295 C816.043262,2805.00208 816.318814,2804.6957 816.676301,2804.64721 L816.775684,2804.64053 L817.720215,2804.64053 L817.720215,2793.73242 C817.720215,2793.32783 818.048145,2793 818.452637,2793 C818.823421,2793 819.129872,2793.27547 819.178372,2793.63302 L819.185059,2793.73242 L819.185059,2804.64053 L820.129688,2804.64053 C820.500472,2804.64053 820.806923,2804.916 820.855423,2805.27355 L820.862109,2805.37295 L820.862109,2807.99414 L822.554004,2807.99414 L822.554004,2805.37295 C822.554004,2805.00208 822.829556,2804.6957 823.187043,2804.64721 L823.286426,2804.64053 L824.231055,2804.64053 L824.231055,2793.73242 C824.231055,2793.32783 824.558984,2793 824.963477,2793 C825.334261,2793 825.640712,2793.27547 825.689212,2793.63302 L825.695898,2793.73242 L825.695898,2804.64053 L826.640527,2804.64053 C827.011312,2804.64053 827.317763,2804.916 827.366263,2805.27355 L827.372949,2805.37295 L827.372949,2807.99414 L829.064844,2807.99414 L829.064844,2805.37295 C829.064844,2805.00208 829.340396,2804.6957 829.697883,2804.64721 L829.797266,2804.64053 L830.741895,2804.64053 L830.741895,2793.73242 C830.741895,2793.32783 831.069824,2793 831.474316,2793 Z M819.735156,2830.09189 C820.105941,2830.09189 820.412391,2830.36736 820.460892,2830.72491 L820.467578,2830.82432 L820.467578,2832.79727 C820.467578,2833.20186 820.139648,2833.52969 819.735156,2833.52969 C819.364372,2833.52969 819.057921,2833.25422 819.009421,2832.89667 L819.002734,2832.79727 L819.002734,2830.82432 C819.002734,2830.41973 819.330664,2830.09189 819.735156,2830.09189 Z M829.205371,2830.09189 C829.576156,2830.09189 829.882606,2830.36736 829.931107,2830.72491 L829.937793,2830.82432 L829.937793,2832.79727 C829.937793,2833.20186 829.609863,2833.52969 829.205371,2833.52969 C828.834587,2833.52969 828.528136,2833.25422 828.479636,2832.89667 L828.472949,2832.79727 L828.472949,2830.82432 C828.472949,2830.41973 828.800879,2830.09189 829.205371,2830.09189 Z M800.794629,2830.09189 C801.165413,2830.09189 801.471864,2830.36736 801.520364,2830.72491 L801.527051,2830.82432 L801.527051,2832.79727 C801.527051,2833.20186 801.199121,2833.52969 800.794629,2833.52969 C800.423844,2833.52969 800.117394,2833.25422 800.068893,2832.89667 L800.062207,2832.79727 L800.062207,2830.82432 C800.062207,2830.41973 800.390137,2830.09189 800.794629,2830.09189 Z M807.108105,2830.09189 C807.47889,2830.09189 807.785341,2830.36736 807.833841,2830.72491 L807.840527,2830.82432 L807.840527,2832.79727 C807.840527,2833.20186 807.512598,2833.52969 807.108105,2833.52969 C806.737321,2833.52969 806.43087,2833.25422 806.38237,2832.89667 L806.375684,2832.79727 L806.375684,2830.82432 C806.375684,2830.41973 806.703613,2830.09189 807.108105,2830.09189 Z M816.578418,2830.09189 C816.949202,2830.09189 817.255653,2830.36736 817.304153,2830.72491 L817.31084,2830.82432 L817.31084,2832.79727 C817.31084,2833.20186 816.98291,2833.52969 816.578418,2833.52969 C816.207633,2833.52969 815.901183,2833.25422 815.852682,2832.89667 L815.845996,2832.79727 L815.845996,2830.82432 C815.845996,2830.41973 816.173926,2830.09189 816.578418,2830.09189 Z M813.421582,2830.09189 C813.792367,2830.09189 814.098817,2830.36736 814.147318,2830.72491 L814.154004,2830.82432 L814.154004,2832.79727 C814.154004,2833.20186 813.826074,2833.52969 813.421582,2833.52969 C813.050798,2833.52969 812.744347,2833.25422 812.695847,2832.89667 L812.68916,2832.79727 L812.68916,2830.82432 C812.68916,2830.41973 813.01709,2830.09189 813.421582,2830.09189 Z M797.637793,2830.09189 C798.008577,2830.09189 798.315028,2830.36736 798.363528,2830.72491 L798.370215,2830.82432 L798.370215,2832.79727 C798.370215,2833.20186 798.042285,2833.52969 797.637793,2833.52969 C797.267008,2833.52969 796.960558,2833.25422 796.912057,2832.89667 L796.905371,2832.79727 L796.905371,2830.82432 C796.905371,2830.41973 797.233301,2830.09189 797.637793,2830.09189 Z M803.951367,2830.09189 C804.322152,2830.09189 804.628602,2830.36736 804.677103,2830.72491 L804.683789,2830.82432 L804.683789,2832.79727 C804.683789,2833.20186 804.355859,2833.52969 803.951367,2833.52969 C803.580583,2833.52969 803.274132,2833.25422 803.225632,2832.89667 L803.218945,2832.79727 L803.218945,2830.82432 C803.218945,2830.41973 803.546875,2830.09189 803.951367,2830.09189 Z M832.362207,2830.09189 C832.732992,2830.09189 833.039442,2830.36736 833.087943,2830.72491 L833.094629,2830.82432 L833.094629,2832.79727 C833.094629,2833.20186 832.766699,2833.52969 832.362207,2833.52969 C831.991423,2833.52969 831.684972,2833.25422 831.636472,2832.89667 L831.629785,2832.79727 L831.629785,2830.82432 C831.629785,2830.41973 831.957715,2830.09189 832.362207,2830.09189 Z M810.264844,2830.09189 C810.635628,2830.09189 810.942079,2830.36736 810.990579,2830.72491 L810.997266,2830.82432 L810.997266,2832.79727 C810.997266,2833.20186 810.669336,2833.52969 810.264844,2833.52969 C809.894059,2833.52969 809.587609,2833.25422 809.539108,2832.89667 L809.532422,2832.79727 L809.532422,2830.82432 C809.532422,2830.41973 809.860352,2830.09189 810.264844,2830.09189 Z M826.048633,2830.09189 C826.419417,2830.09189 826.725868,2830.36736 826.774368,2830.72491 L826.781055,2830.82432 L826.781055,2832.79727 C826.781055,2833.20186 826.453125,2833.52969 826.048633,2833.52969 C825.677848,2833.52969 825.371398,2833.25422 825.322897,2832.89667 L825.316211,2832.79727 L825.316211,2830.82432 C825.316211,2830.41973 825.644141,2830.09189 826.048633,2830.09189 Z M822.891895,2830.09189 C823.262679,2830.09189 823.56913,2830.36736 823.61763,2830.72491 L823.624316,2830.82432 L823.624316,2832.79727 C823.624316,2833.20186 823.296387,2833.52969 822.891895,2833.52969 C822.52111,2833.52969 822.214659,2833.25422 822.166159,2832.89667 L822.159473,2832.79727 L822.159473,2830.82432 C822.159473,2830.41973 822.487402,2830.09189 822.891895,2830.09189 Z M831.588867,2817.46494 C832.801571,2817.46494 833.797588,2818.41043 833.878485,2819.60297 L833.883789,2819.75986 L833.883789,2819.7916 C833.883789,2821.00431 832.938301,2822.00032 831.74576,2822.08122 L831.588867,2822.08652 L798.411133,2822.08652 C797.198429,2822.08652 796.202412,2821.14103 796.121515,2819.94849 L796.116211,2819.7916 L796.116211,2819.75986 C796.116211,2818.54716 797.061699,2817.55114 798.25424,2817.47025 L798.411133,2817.46494 L831.588867,2817.46494 Z M831.588867,2818.92979 L798.411133,2818.92979 C797.988627,2818.92979 797.638846,2819.24707 797.587534,2819.65588 L797.581055,2819.75986 L797.581055,2819.7916 C797.581055,2820.21411 797.898335,2820.56389 798.307152,2820.6152 L798.411133,2820.62168 L831.588867,2820.62168 C832.011373,2820.62168 832.361154,2820.3044 832.412466,2819.89558 L832.418945,2819.7916 L832.418945,2819.75986 C832.418945,2819.30215 832.046582,2818.92979 831.588867,2818.92979 Z M831.588867,2811.15137 C832.801571,2811.15137 833.797588,2812.09686 833.878485,2813.2894 L833.883789,2813.44629 L833.883789,2813.47852 C833.883789,2814.69122 832.938301,2815.68724 831.74576,2815.76813 L831.588867,2815.77344 L828.663086,2815.77344 C828.258594,2815.77344 827.930664,2815.44561 827.930664,2815.04102 C827.930664,2814.67014 828.206216,2814.36377 828.563703,2814.31528 L828.663086,2814.30859 L831.588867,2814.30859 C832.011373,2814.30859 832.361154,2813.99131 832.412466,2813.5825 L832.418945,2813.47852 L832.418945,2813.44629 C832.418945,2813.02378 832.101665,2812.674 831.692848,2812.62269 L831.588867,2812.61621 L798.411133,2812.61621 C797.988627,2812.61621 797.638846,2812.93349 797.587534,2813.34231 L797.581055,2813.44629 L797.581055,2813.47852 C797.581055,2813.90102 797.898335,2814.2508 798.307152,2814.30211 L798.411133,2814.30859 L825.245117,2814.30859 C825.649609,2814.30859 825.977539,2814.63643 825.977539,2815.04102 C825.977539,2815.41189 825.701987,2815.71827 825.3445,2815.76675 L825.245117,2815.77344 L798.411133,2815.77344 C797.198429,2815.77344 796.202412,2814.82795 796.121515,2813.63541 L796.116211,2813.47852 L796.116211,2813.44629 C796.116211,2812.23359 797.061699,2811.23757 798.25424,2811.15667 L798.411133,2811.15137 L831.588867,2811.15137 Z M800.851367,2806.10537 L797.581055,2806.10537 L797.581055,2807.99414 L800.851367,2807.99414 L800.851367,2806.10537 Z M808.743262,2806.10537 L805.472949,2806.10537 L805.472949,2807.99414 L808.743262,2807.99414 L808.743262,2806.10537 Z M819.397266,2806.10537 L817.508105,2806.10537 L817.508105,2807.99414 L819.397266,2807.99414 L819.397266,2806.10537 Z M825.908105,2806.10537 L824.018848,2806.10537 L824.018848,2807.99414 L825.908105,2807.99414 L825.908105,2806.10537 Z M832.418945,2806.10537 L830.529688,2806.10537 L830.529688,2807.99414 L832.418945,2807.99414 L832.418945,2806.10537 Z" id="Decoder-IPTV"></path></g></g></svg>