<svg xmlns="http://www.w3.org/2000/svg" xmlns:xlink="http://www.w3.org/1999/xlink" width="60px" height="29px" viewBox="0 0 60 29"><title>LG</title><g id="Page-1" stroke="none" stroke-width="1" fill="none" fill-rule="evenodd"><g id="VOD" transform="translate(-335.000000, -2584.000000)" fill="#FFFFFF" fill-rule="nonzero"><path d="M371.52561,2609.74791 L371.52561,2610.28782 L370.42413,2610.28782 L370.42413,2612.92508 L369.706169,2612.92508 L369.706169,2610.28782 L369.237989,2610.28782 L369.237989,2609.74791 L369.698189,2609.74791 L369.698189,2609.36504 C369.698189,2608.41045 370.22829,2608.11824 370.96749,2608.11824 C371.22327,2608.11824 371.49633,2608.15602 371.70009,2608.23749 L371.54223,2608.74826 C371.38239,2608.68864 371.21661,2608.65886 371.04477,2608.65886 C370.59057,2608.65886 370.41609,2608.86948 370.41609,2609.36504 L370.41609,2609.74791 L371.52561,2609.74791 Z M371.745744,2611.31772 C371.745744,2610.21338 372.251904,2609.67276 373.271484,2609.67276 C374.389644,2609.67276 374.623404,2610.334 374.623404,2611.22825 L374.623404,2611.51181 L372.486324,2611.51181 C372.500964,2612.18821 372.764664,2612.4744 373.399404,2612.4744 C373.875504,2612.4744 374.177844,2612.32399 374.426304,2612.21931 L374.577444,2612.67708 C374.335704,2612.82021 373.792284,2612.99974 373.286184,2612.99974 C372.146004,2612.99974 371.745744,2612.44455 371.745744,2611.31772 M372.492984,2611.01762 L373.883544,2611.01762 C373.883544,2610.41672 373.670424,2610.16169 373.264164,2610.16169 C372.711444,2610.16169 372.515604,2610.45385 372.492984,2611.01762 M374.701974,2609.65752 C375.004314,2609.14608 375.056934,2608.70358 375.056934,2608.16368 L375.729594,2608.16368 C375.721554,2608.97252 375.532494,2609.44617 375.155514,2609.94305 L374.701974,2609.65752 Z M377.675664,2611.17492 C378.068604,2611.3107 378.385584,2611.51279 378.385584,2612.0315 C378.385584,2612.68469 377.872104,2613 377.011704,2613 C376.528224,2613 376.120644,2612.90994 375.803664,2612.77481 L376.022724,2612.2561 C376.271124,2612.37731 376.618764,2612.47466 377.017704,2612.47466 C377.397264,2612.47466 377.689644,2612.39922 377.689644,2612.09907 C377.689644,2611.91888 377.555124,2611.79897 377.282724,2611.70091 C377.033664,2611.61813 376.747944,2611.53529 376.528224,2611.45185 C376.143984,2611.3107 375.848244,2611.09942 375.848244,2610.61979 C375.848244,2609.94274 376.451664,2609.67314 377.184804,2609.67314 C377.699004,2609.67314 378.060624,2609.77114 378.356304,2609.88377 L378.135864,2610.40183 C377.880084,2610.27398 377.555124,2610.1912 377.184804,2610.1912 C376.731324,2610.1912 376.536204,2610.33426 376.536204,2610.54429 C376.536204,2610.71648 376.656084,2610.81454 376.927764,2610.91857 C377.092944,2610.98685 377.449284,2611.09279 377.675664,2611.17492 M384.399067,2612.69238 C383.990827,2612.87919 383.400787,2612.99975 382.760167,2612.99975 C381.279007,2612.99247 380.622367,2612.17372 380.622367,2610.64139 C380.622367,2609.04155 381.460807,2608.28303 382.828027,2608.28303 C383.476747,2608.28303 384.050767,2608.48577 384.405127,2608.91436 L383.960227,2609.31246 C383.704507,2609.04155 383.348167,2608.85474 382.835347,2608.85474 C381.845107,2608.85474 381.370267,2609.51521 381.370267,2610.70961 C381.370267,2611.81329 381.845107,2612.41484 382.797427,2612.41484 C383.137747,2612.41484 383.439427,2612.36841 383.688487,2612.3015 L383.688487,2611.07595 L382.630327,2611.07595 L382.630327,2610.5142 L384.399067,2610.5142 L384.399067,2612.69238 Z M365.511857,2608.35787 L365.511857,2612.33928 L367.521077,2612.33928 L367.521077,2612.92425 L364.779257,2612.92425 L364.779257,2608.35787 L365.511857,2608.35787 Z M367.977461,2609.04183 L368.708777,2609.04183 L368.708777,2608.40387 L367.977461,2608.40387 L367.977461,2609.04183 Z M367.985099,2612.92513 L368.709019,2612.92513 L368.709019,2609.74802 L367.985099,2609.74802 L367.985099,2612.92513 Z M384.937129,2611.3257 C384.937129,2610.22137 385.451929,2609.67293 386.561389,2609.67293 C387.694909,2609.67293 388.042549,2610.31083 388.042549,2611.35483 C388.042549,2612.45917 387.527749,2612.99979 386.410849,2612.99979 C385.278709,2612.99979 384.937129,2612.36845 384.937129,2611.3257 M387.309289,2611.29526 C387.309289,2610.67914 387.173389,2610.17636 386.561389,2610.17636 C385.882789,2610.17636 385.670389,2610.59636 385.670389,2611.37805 C385.670389,2612.00079 385.814209,2612.49695 386.410849,2612.49695 C387.104869,2612.49695 387.309289,2612.08357 387.309289,2611.29526 M388.487149,2611.3257 C388.487149,2610.22137 389.000629,2609.67293 390.11009,2609.67293 C391.24355,2609.67293 391.59053,2610.31083 391.59053,2611.35483 C391.59053,2612.45917 391.07843,2612.99979 389.960269,2612.99979 C388.826749,2612.99979 388.487149,2612.36845 388.487149,2611.3257 M390.85859,2611.29526 C390.85859,2610.67914 390.72281,2610.17636 390.11009,2610.17636 C389.431429,2610.17636 389.221009,2610.59636 389.221009,2611.37805 C389.221009,2612.00079 389.364169,2612.49695 389.960269,2612.49695 C390.65483,2612.49695 390.85859,2612.08357 390.85859,2611.29526 M392.04848,2611.40736 C392.04848,2610.39308 392.46938,2609.67299 393.57956,2609.67299 C393.82256,2609.67299 394.01708,2609.71012 394.22084,2609.80812 L394.22084,2608.20697 L394.93808,2608.11822 L394.93808,2612.0917 L395,2612.92435 L394.37996,2612.92435 L394.31942,2612.71504 C394.0397,2612.91838 393.7307,2612.99925 393.37574,2612.99925 C392.46206,2612.99925 392.04848,2612.39901 392.04848,2611.40736 M394.22084,2612.24867 L394.22084,2610.33417 C394.0397,2610.22746 393.8672,2610.19105 393.69338,2610.19105 C393.14198,2610.19105 392.78636,2610.49843 392.78636,2611.37023 C392.78636,2612.03207 393.01346,2612.48251 393.60218,2612.48251 C393.84392,2612.48251 394.03232,2612.40701 394.22084,2612.24867 M346.655601,2590.76938 L347.645001,2590.76938 L347.645001,2600.39519 L350.058141,2600.39519 L350.058141,2601.35539 L346.655601,2601.35539 L346.655601,2590.76938 Z M343.277181,2590.76938 C344.073561,2590.76938 344.725041,2591.41744 344.725041,2592.20962 C344.725041,2593.00175 344.073561,2593.64986 343.277181,2593.64986 C342.456741,2593.64986 341.805201,2593.00175 341.805201,2592.20962 C341.805201,2591.41744 342.456741,2590.76938 343.277181,2590.76938 Z M347.162421,2585.94439 C347.258961,2585.94439 347.500221,2585.96845 347.620881,2585.96845 L347.620881,2586.90459 L347.162421,2586.90459 C344.700981,2586.90459 342.384321,2587.84074 340.646841,2589.56907 C338.88518,2591.29741 337.91996,2593.62593 337.91996,2596.05036 C337.91996,2598.52284 338.88518,2600.80326 340.646841,2602.53159 C342.384321,2604.25993 344.700981,2605.22019 347.162421,2605.22019 C352.012942,2605.22019 356.018782,2601.45149 356.332462,2596.67448 L356.332462,2596.5304 L350.058141,2596.5304 L350.058141,2595.61825 L356.911642,2595.61825 L357.321862,2595.61825 L357.321862,2596.05036 C357.321862,2598.76295 356.260042,2601.30735 354.329482,2603.20375 C352.423102,2605.1001 349.865182,2606.15639 347.162421,2606.15639 C344.435541,2606.15639 341.877501,2605.1001 339.946941,2603.20375 C338.04056,2601.30735 336.97886,2598.76295 336.97886,2596.05036 C336.97886,2590.48129 341.539761,2585.94439 347.162421,2585.94439 Z M347.138301,2584 C340.453821,2584 335,2589.40112 335,2596.07442 C335,2602.72371 340.453821,2608.12466 347.138301,2608.12466 C353.846902,2608.12466 359.276483,2602.72371 359.276483,2596.07442 C359.276483,2589.40112 353.846902,2584 347.138301,2584 Z M368.422421,2588.05681 L364.778561,2588.05681 L364.778561,2603.7799 L375.975642,2603.7799 L375.975642,2600.7073 L368.422421,2600.7073 L368.422421,2588.05681 Z M383.987383,2597.77872 L386.979703,2597.77872 L386.979703,2600.51524 C386.424643,2600.73129 385.338703,2600.94735 384.349303,2600.94735 C381.043303,2600.94735 379.957363,2599.29099 379.957363,2595.90636 C379.957363,2592.68974 380.995063,2590.81733 384.276943,2590.81733 C386.110963,2590.81733 387.148663,2591.36947 388.017343,2592.47368 L390.285764,2590.38527 C388.886143,2588.41689 386.472943,2587.81676 384.204523,2587.81676 C379.088682,2587.81676 376.409982,2590.60127 376.409982,2595.88231 C376.409982,2601.13936 378.847302,2603.9959 384.180403,2603.9959 C386.617723,2603.9959 389.030924,2603.37178 390.334004,2602.45963 L390.334004,2594.85013 L383.987383,2594.85013 L383.987383,2597.77872 Z" id="LG"></path></g></g></svg>