<svg xmlns="http://www.w3.org/2000/svg" xmlns:xlink="http://www.w3.org/1999/xlink" width="50px" height="33px" viewBox="0 0 50 33"><title>MAC &amp; PC</title><g id="Page-1" stroke="none" stroke-width="1" fill="none" fill-rule="evenodd"><g id="VOD" transform="translate(-640.000000, -2582.000000)" fill="#FFFFFF" fill-rule="nonzero"><g id="MAC-&amp;-PC" transform="translate(640.000000, 2582.000000)"><path d="M45.3730609,24.9743151 L45.3730609,23.1910804 L45.3730609,12.4871576 L45.3730609,1.78323472 C45.3730609,0.803584254 44.5388293,2.00484886e-15 43.5194732,2.00484886e-15 L6.48287013,2.00484886e-15 C5.46409992,2.00484886e-15 4.62752496,0.79963405 4.62752496,1.78323472 L4.62752496,12.4871576 L4.62752496,23.1910804 L4.62752496,24.9743151 L0,30.3262765 C0,31.8008311 1.24314571,33 2.7756948,33 L47.2243052,33 C48.7568543,33 50,31.8002668 50,30.3262765 L45.3730609,24.9743151 Z M28.7071753,32.1117685 L21.2998547,32.1117685 C21.0420865,32.1117685 20.8364578,31.913694 20.8364578,31.6653955 C20.8364578,31.417097 21.0420865,31.2190225 21.2998547,31.2190225 L28.7071753,31.2190225 C28.9608427,31.2190225 29.1705722,31.417097 29.1705722,31.6653955 C29.164128,31.913694 28.9608427,32.1117685 28.7071753,32.1117685 Z M17.3665464,30.3285338 L18.7795848,28.6948425 L31.2210011,28.6948425 L32.6340395,30.3285338 L17.3665464,30.3285338 Z M42.7649154,21.8197955 C42.7649154,22.6803755 42.0373061,23.37674 41.1503492,23.37674 L8.84965084,23.37674 C7.96269391,23.37674 7.23508459,22.6741681 7.23508459,21.8197955 L7.23508459,3.15846985 C7.23508459,2.2978898 7.96269391,1.60152536 8.84965084,1.60152536 L41.1503492,1.60152536 C42.0373061,1.60152536 42.7649154,2.30240432 42.7649154,3.15846985 C42.7649154,3.15846985 42.7649154,21.8197955 42.7649154,21.8197955 Z" id="Shape"></path><path d="M28.1787505,5.99415165 C26.9145147,6.17981121 25.6520364,6.34966996 24.386043,6.52742912 C24.386043,8.47205787 24.386043,10.3687199 24.386043,12.2794897 C27.1178001,12.2794897 29.8079627,12.2794897 32.5754558,12.2794897 C32.5754558,9.96523479 32.5754558,7.68483874 32.5754558,5.40274975 C32.4412992,5.40274975 32.3006983,5.40274975 32.1665417,5.40274975 C30.837278,5.59630972 29.5080142,5.80228462 28.1787505,5.99415165 Z" id="Path"></path><path d="M24.375498,18.8571429 C27.1013966,19.2369267 29.7991751,19.6105031 32.531518,19.9902869 C32.531518,17.6675673 32.531518,15.4159513 32.531518,13.1355553 C29.7763275,13.1355553 27.0803065,13.1355553 24.375498,13.1355553 C24.375498,15.0559185 24.375498,16.9446801 24.375498,18.8571429 Z" id="Path"></path><path d="M17.4415335,12.2834399 C19.4878615,12.2834399 21.4861508,12.2834399 23.5131462,12.2834399 C23.5131462,10.3828277 23.5131462,8.53921133 23.5131462,6.64649954 C21.460374,6.93542871 19.4433379,7.21815042 17.4415335,7.49861486 C17.4415335,9.13851363 17.4415335,10.707873 17.4415335,12.2834399 Z" id="Path"></path><path d="M17.4251301,17.8836999 C19.4398228,18.1686788 21.4463139,18.446886 23.5055303,18.7358152 C23.5055303,16.8436677 23.5055303,14.9915866 23.5055303,13.133298 C21.4615457,13.133298 19.4550546,13.133298 17.4251301,13.133298 C17.4251301,14.7207155 17.4251301,16.2782243 17.4251301,17.8836999 Z" id="Path"></path></g></g></g></svg>