<svg xmlns="http://www.w3.org/2000/svg" xmlns:xlink="http://www.w3.org/1999/xlink" width="60px" height="18px" viewBox="0 0 60 18"><title>Roku</title><g id="Page-1" stroke="none" stroke-width="1" fill="none" fill-rule="evenodd"><g id="VOD" transform="translate(-1085.000000, -2589.000000)" fill="#FFFFFF" fill-rule="nonzero"><path d="M1120.2109,2592.83114 L1120.2109,2598.29088 L1125.84384,2592.84909 L1135.8533,2592.84909 L1135.8533,2600.4418 C1135.8533,2602.64544 1136.40487,2603.33436 1137.60786,2603.33436 C1138.79344,2603.33436 1139.56098,2602.75091 1140.11139,2601.82188 L1140.11139,2601.82188 L1140.11139,2592.84909 L1145,2592.84909 L1145,2606.70827 L1143.95609,2606.70827 L1141.75796,2604.87602 C1140.85107,2605.88471 1138.98387,2607 1136.94946,2607 C1132.66351,2607 1130.96237,2604.47658 1130.96237,2601.74222 L1130.96237,2601.74222 L1130.96237,2593.50659 L1124.77206,2599.48583 L1132.24548,2606.70827 L1126.09117,2606.70827 L1120.2109,2601.0791 L1120.2109,2606.70827 L1115.32113,2606.70827 L1115.32113,2592.83114 L1120.2109,2592.83114 Z M1106.84095,2592.55512 C1110.99221,2592.55512 1114.36779,2595.76858 1114.36779,2599.77756 C1114.36779,2603.78766 1110.99221,2607 1106.84095,2607 C1102.69202,2607 1099.34082,2603.78766 1099.34082,2599.77756 C1099.34082,2595.76858 1102.69202,2592.55512 1106.84095,2592.55512 Z M1092.00546,2589 C1096.04408,2589 1099.3407,2591.65358 1099.3407,2594.91865 C1099.3407,2596.91024 1098.07733,2598.68864 1096.1544,2599.777 L1101.32634,2606.72118 L1095.77701,2606.72118 L1091.37261,2600.81374 L1089.89094,2600.81374 L1089.89094,2606.70884 L1085,2606.70884 L1085,2589 L1092.00546,2589 Z M1106.84095,2595.98177 C1105.54971,2595.98177 1104.45122,2597.67714 1104.45122,2599.77756 C1104.45122,2601.87686 1105.54971,2603.57447 1106.84095,2603.57447 C1108.16239,2603.57447 1109.25971,2601.87686 1109.25971,2599.77756 C1109.25971,2597.67714 1108.16239,2595.98177 1106.84095,2595.98177 Z M1091.40281,2591.9453 L1089.89094,2591.9453 L1089.89094,2597.8662 L1091.40281,2597.8662 C1093.07956,2597.8662 1094.44977,2596.53885 1094.44977,2594.91865 C1094.44977,2593.27153 1093.07956,2591.9453 1091.40281,2591.9453 Z" id="Roku"></path></g></g></svg>