<svg xmlns="http://www.w3.org/2000/svg" xmlns:xlink="http://www.w3.org/1999/xlink" width="60px" height="10px" viewBox="0 0 60 10"><title>Samsung</title><g id="Page-1" stroke="none" stroke-width="1" fill="none" fill-rule="evenodd"><g id="VOD" transform="translate(-185.000000, -2593.000000)" fill="#FFFFFF" fill-rule="nonzero"><path d="M188.982801,2600.00087 C189.065475,2600.22749 189.039331,2600.51604 188.999771,2600.69222 C188.929596,2601.00312 188.735352,2601.31864 188.163973,2601.31864 C187.627795,2601.31864 187.301342,2600.98215 187.301342,2600.47259 L187.300425,2599.56861 L185.001376,2599.56861 L185,2600.28818 C185,2602.37096 186.505562,2603 188.116386,2603 C189.667929,2603 190.944044,2602.42365 191.147691,2600.86528 C191.252266,2600.05968 191.174981,2599.53178 191.138403,2599.33412 C190.776976,2597.3787 187.522991,2596.79536 187.281046,2595.70258 C187.239423,2595.51367 187.249513,2595.31689 187.270956,2595.21239 C187.332302,2594.91285 187.518519,2594.58522 188.054237,2594.58522 C188.557276,2594.58522 188.851165,2594.92159 188.851165,2595.43151 L188.851165,2596.00911 L190.991401,2596.00911 L190.991401,2595.35123 C190.991401,2593.31839 189.313382,2593 188.09953,2593 C186.575737,2593 185.329091,2593.54951 185.101594,2595.07317 C185.039445,2595.48907 185.030845,2595.8624 185.122348,2596.3315 C185.493292,2598.24098 188.54042,2598.79248 188.982801,2600.00087 M216.861261,2599.98198 C216.943132,2600.20648 216.917332,2600.49191 216.877428,2600.66584 C216.808285,2600.97474 216.61599,2601.28701 216.050459,2601.28701 C215.519671,2601.28701 215.196428,2600.95489 215.196428,2600.44983 L215.195282,2599.55371 L212.91951,2599.55371 L212.91779,2600.26666 C212.91779,2602.32872 214.408789,2602.95164 216.003675,2602.95164 C217.539165,2602.95164 218.802552,2602.38066 219.004249,2600.83802 C219.107563,2600.04042 219.031884,2599.51776 218.994617,2599.32185 C218.637204,2597.38653 215.415899,2596.80943 215.176018,2595.72677 C215.134853,2595.5401 215.145287,2595.34495 215.166386,2595.24144 C215.227044,2594.9454 215.411541,2594.62114 215.942329,2594.62114 C216.439635,2594.62114 216.729968,2594.95376 216.729968,2595.45845 L216.729968,2596.0303 L218.849565,2596.0303 L218.849565,2595.37929 C218.849565,2593.3668 217.188402,2593.0514 215.98659,2593.0514 C214.478047,2593.0514 213.244129,2593.59567 213.018696,2595.10347 C212.956891,2595.51588 212.948406,2595.88522 213.038877,2596.35044 C213.406839,2598.23957 216.423581,2598.78595 216.861261,2599.98198 M234.651024,2600.81259 L234.530969,2593.29517 L236.654235,2593.29517 L236.654235,2602.5344 L233.600801,2602.5344 L231.434649,2594.77575 L231.554819,2602.5344 L229.446689,2602.5344 L229.446689,2593.29517 L232.630269,2593.29517 L234.651024,2600.81259 Z M196.108373,2593.98866 L194.912753,2602.63007 L192.595472,2602.63007 L194.183822,2593.29519 L197.998409,2593.29519 L199.578618,2602.63007 L197.274868,2602.63007 L196.108373,2593.98866 Z M208.620438,2593.98866 L207.144231,2602.63007 L204.967989,2602.63007 L203.491209,2593.98866 L203.434793,2602.63007 L201.288938,2602.63007 L201.47848,2593.29519 L204.974181,2593.29519 L206.055709,2600.59373 L207.13758,2593.29519 L210.633396,2593.29519 L210.821791,2602.63007 L208.677427,2602.63007 L208.620438,2593.98866 Z M224.059336,2601.23685 C224.655483,2601.23685 224.839521,2600.7901 224.881489,2600.55961 C224.89995,2600.45947 224.903161,2600.32325 224.902473,2600.20338 L224.902473,2593.29553 L227.071376,2593.29553 L227.071376,2599.99112 C227.075045,2600.16293 227.058877,2600.51391 227.050736,2600.60518 C226.900295,2602.34735 225.635875,2602.91296 224.059336,2602.91296 C222.48291,2602.91296 221.217574,2602.34735 221.06782,2600.60518 C221.059908,2600.51391 221.043396,2600.16293 221.046607,2599.99112 L221.046607,2593.29553 L223.216313,2593.29553 L223.216313,2600.20338 C223.215166,2600.32325 223.218262,2600.45947 223.236494,2600.55961 C223.278347,2600.7901 223.462386,2601.23685 224.059336,2601.23685 M241.944731,2601.14022 C242.565072,2601.14022 242.783167,2600.71108 242.821694,2600.46161 C242.837862,2600.35622 242.842678,2600.22674 242.841532,2600.10725 L242.841532,2598.75253 L241.962504,2598.75253 L241.962504,2597.39106 L245,2597.39106 L245,2599.89424 C244.99828,2600.06942 244.995184,2600.19765 244.968467,2600.50905 C244.826511,2602.20839 243.474028,2602.81546 241.953789,2602.81546 C240.432977,2602.81546 239.08015,2602.20839 238.937162,2600.50905 C238.911477,2600.19765 238.908266,2600.06942 238.907464,2599.89424 L238.907808,2595.96566 C238.907808,2595.79923 238.926727,2595.50668 238.943698,2595.35036 C239.135649,2593.60482 240.432977,2593.04433 241.954133,2593.04433 C243.474372,2593.04433 244.80633,2593.60082 244.964454,2595.35036 C244.991056,2595.64815 244.982112,2595.96566 244.983832,2595.96566 L244.983832,2596.27656 L242.820892,2596.27656 L242.820892,2595.75265 C242.822153,2595.7544 242.818828,2595.53303 242.793028,2595.3968 C242.75473,2595.19216 242.59179,2594.72006 241.936819,2594.72006 C241.312234,2594.72006 241.130718,2595.16669 241.083132,2595.3968 C241.057332,2595.51979 241.0477,2595.68773 241.0477,2595.83956 L241.0477,2600.10725 C241.047356,2600.22674 241.051713,2600.35622 241.068684,2600.46161 C241.107441,2600.71108 241.324389,2601.14022 241.944731,2601.14022" id="Samsung"></path></g></g></svg>